<svg width="110" height="83" fill="none" xmlns="http://www.w3.org/2000/svg"><path fill-rule="evenodd" clip-rule="evenodd" d="M3.557 81.862c-1.117.301-2.306.22-3.557-.251l.458-1.217c1.034.39 1.943.433 2.761.213.825-.222 1.613-.728 2.374-1.528 1.538-1.62 2.872-4.348 4.073-7.933 2.13-6.365 3.75-15.137 5.46-24.39v-.004l.641-3.463c1.95-10.464 4.1-21.215 7.307-29.354 1.604-4.07 3.49-7.536 5.784-9.994C31.165 1.471 33.908 0 37.178 0c2.96 0 5.536 1.37 7.783 3.663 2.237 2.285 4.18 5.515 5.908 9.33 3.456 7.632 6.124 17.778 8.518 27.864.577 2.427 1.137 4.85 1.688 7.236l.001.005c1.747 7.555 3.406 14.732 5.207 20.459 1.186 3.77 2.418 6.859 3.751 8.994.938 1.504 1.868 2.444 2.796 2.878l.013-.035c1.034.39 1.943.434 2.761.213.825-.222 1.613-.727 2.374-1.528 1.538-1.619 2.872-4.348 4.073-7.933 2.13-6.365 3.75-15.137 5.46-24.39l.003-.021.638-3.446c1.949-10.463 4.1-21.215 7.307-29.354 1.604-4.07 3.49-7.536 5.784-9.993C103.55 1.47 106.292 0 109.563 0c2.961 0 5.532 1.37 7.77 3.665 2.229 2.285 4.16 5.515 5.873 9.331 3.426 7.632 6.055 17.78 8.409 27.866.567 2.425 1.117 4.847 1.659 7.23l.002.012c1.717 7.556 3.348 14.732 5.127 20.46 1.171 3.77 2.392 6.859 3.716 8.994.931 1.503 1.856 2.442 2.782 2.876l.014-.038c1.033.39 1.949.434 2.781.213.838-.224 1.644-.732 2.426-1.534 1.581-1.622 2.974-4.354 4.247-7.939 2.267-6.388 4.059-15.202 5.947-24.493l.003-.015.682-3.35c2.143-10.463 4.489-21.214 7.842-29.352 1.676-4.07 3.623-7.534 5.959-9.989C177.15 1.469 179.915 0 183.185 0c2.96 0 5.536 1.37 7.782 3.663 2.238 2.285 4.181 5.515 5.909 9.33 3.456 7.632 6.124 17.778 8.518 27.864.577 2.429 1.137 4.854 1.689 7.242 1.747 7.555 3.405 14.73 5.207 20.458 1.186 3.77 2.418 6.859 3.751 8.994 1.351 2.165 2.684 3.163 4.02 3.163v1.3c-2.048 0-3.72-1.525-5.123-3.774-1.422-2.28-2.694-5.496-3.888-9.293-1.818-5.78-3.494-13.029-5.243-20.597l-.002-.01a1277.01 1277.01 0 0 0-1.676-7.183c-2.395-10.093-5.04-20.125-8.437-27.627-1.699-3.752-3.567-6.827-5.653-8.957-2.078-2.121-4.339-3.273-6.854-3.273-2.831 0-5.275 1.257-7.441 3.533-2.178 2.289-4.051 5.586-5.699 9.588-3.298 8.005-5.623 18.633-7.77 29.118-.23 1.122-.457 2.242-.684 3.356l-.003.016c-1.882 9.265-3.693 18.178-5.994 24.66-1.287 3.625-2.756 6.58-4.541 8.411-.9.924-1.902 1.584-3.023 1.883a5.311 5.311 0 0 1-1.906.149v.005c-2.048 0-3.715-1.526-5.11-3.776-1.414-2.28-2.673-5.496-3.852-9.293-1.796-5.781-3.443-13.03-5.163-20.599l-.002-.009-.002-.01c-.539-2.372-1.085-4.775-1.646-7.175-2.356-10.093-4.961-20.126-8.329-27.628-1.684-3.752-3.54-6.827-5.618-8.957-2.069-2.12-4.324-3.272-6.839-3.272-2.83 0-5.248 1.256-7.37 3.529-2.135 2.286-3.948 5.582-5.524 9.583-3.153 8.003-5.286 18.63-7.239 29.115-.216 1.16-.43 2.319-.643 3.472-1.703 9.229-3.341 18.101-5.504 24.56-1.213 3.624-2.62 6.581-4.363 8.415-.88.926-1.866 1.589-2.978 1.888a5.23 5.23 0 0 1-1.888.15v.002c-2.047 0-3.72-1.525-5.123-3.774-1.422-2.28-2.693-5.496-3.888-9.293-1.818-5.78-3.494-13.029-5.243-20.597v-.001c-.55-2.378-1.107-4.787-1.677-7.192-2.396-10.093-5.04-20.125-8.438-27.627-1.699-3.752-3.567-6.827-5.653-8.957C41.954 2.452 39.694 1.3 37.178 1.3c-2.83 0-5.248 1.256-7.37 3.529-2.135 2.286-3.948 5.581-5.524 9.582-3.153 8.004-5.286 18.63-7.239 29.116-.216 1.16-.43 2.319-.642 3.472-1.704 9.228-3.342 18.1-5.504 24.56-1.214 3.624-2.621 6.581-4.364 8.415-.88.926-1.866 1.589-2.978 1.888Z" fill="#fff" fill-opacity=".8"/></svg>