<svg xmlns="http://www.w3.org/2000/svg" viewBox="0 0 34 70"><svg width="22" height="23" viewBox="0 0 22 23" fill="none" xmlns="http://www.w3.org/2000/svg" y="0"><path d="M1 21.4062L21 1.40625M21 1.40625L1 1.40625M21 1.40625L21 21.4062" stroke="#DF3D3A" stroke-width="2" /></svg><svg width="10" height="22" viewBox="0 0 10 22" fill="none" xmlns="http://www.w3.org/2000/svg" y="23"><path d="M3.29395 15.3945C3.29395 14.3008 3.40788 13.4121 3.63574 12.7285C3.86361 12.0449 4.4196 11.1745 5.30371 10.1172L6.26074 8.88672C6.89876 7.99349 7.21777 7.0638 7.21777 6.09766C7.21777 5.14062 7.01725 4.39323 6.61621 3.85547C6.22428 3.30859 5.65918 3.03516 4.9209 3.03516C4.22819 3.03516 3.64941 3.28125 3.18457 3.77344C2.72884 4.26562 2.50098 4.92643 2.50098 5.75586H0.0947266C0.112956 4.25195 0.568685 3.05339 1.46191 2.16016C2.35514 1.26693 3.50814 0.820312 4.9209 0.820312C6.38835 0.820312 7.54134 1.2806 8.37988 2.20117C9.21842 3.12174 9.6377 4.39323 9.6377 6.01562C9.6377 7.5651 9.00423 9.11914 7.7373 10.6777L6.47949 12.1953C5.95996 12.9336 5.7002 14 5.7002 15.3945H3.29395ZM4.60645 18.2793C5.06217 18.2793 5.40397 18.4206 5.63184 18.7031C5.86882 18.9766 5.9873 19.3184 5.9873 19.7285C5.9873 20.1387 5.86882 20.4805 5.63184 20.7539C5.40397 21.0182 5.06217 21.1504 4.60645 21.1504C4.1416 21.1504 3.79525 21.0182 3.56738 20.7539C3.34863 20.4805 3.23926 20.1387 3.23926 19.7285C3.23926 19.3184 3.34863 18.9766 3.56738 18.7031C3.79525 18.4206 4.1416 18.2793 4.60645 18.2793Z" fill="#E7E7E7" /></svg><svg width="34" height="25" viewBox="0 0 34 25" fill="none" xmlns="http://www.w3.org/2000/svg" y="45"><path d="M0 12.0397V0H13.9651V9.06516C13.9651 18.508 9.31007 23.8196 0 25V20.0425C2.35151 19.4287 3.95918 18.5316 4.823 17.3513C5.73481 16.1709 6.28669 14.4004 6.47865 12.0397H0Z" fill="#DF3D3A" /><path d="M20.0349 12.0397V0H34V9.06516C34 18.508 29.345 23.8196 20.0349 25V20.0425C22.3864 19.4287 23.9941 18.5316 24.8579 17.3513C25.7697 16.1709 26.3216 14.4004 26.5136 12.0397H20.0349Z" fill="#DF3D3A" /></svg></svg>