<svg width="8" height="16" viewBox="0 0 8 16" fill="none" xmlns="http://www.w3.org/2000/svg">
<path d="M3.06641 10.9961C3.06641 10.2148 3.14779 9.58008 3.31055 9.0918C3.47331 8.60352 3.87044 7.98177 4.50195 7.22656L5.18555 6.34766C5.64128 5.70964 5.86914 5.04557 5.86914 4.35547C5.86914 3.67188 5.72591 3.13802 5.43945 2.75391C5.15951 2.36328 4.75586 2.16797 4.22852 2.16797C3.73372 2.16797 3.32031 2.34375 2.98828 2.69531C2.66276 3.04688 2.5 3.51888 2.5 4.11133H0.78125C0.794271 3.03711 1.11979 2.18099 1.75781 1.54297C2.39583 0.904948 3.2194 0.585938 4.22852 0.585938C5.27669 0.585938 6.10026 0.914714 6.69922 1.57227C7.29818 2.22982 7.59766 3.13802 7.59766 4.29688C7.59766 5.40365 7.14518 6.51367 6.24023 7.62695L5.3418 8.71094C4.9707 9.23828 4.78516 10 4.78516 10.9961H3.06641ZM4.00391 13.0566C4.32943 13.0566 4.57357 13.1576 4.73633 13.3594C4.9056 13.5547 4.99023 13.7988 4.99023 14.0918C4.99023 14.3848 4.9056 14.6289 4.73633 14.8242C4.57357 15.013 4.32943 15.1074 4.00391 15.1074C3.67188 15.1074 3.42448 15.013 3.26172 14.8242C3.10547 14.6289 3.02734 14.3848 3.02734 14.0918C3.02734 13.7988 3.10547 13.5547 3.26172 13.3594C3.42448 13.1576 3.67188 13.0566 4.00391 13.0566Z" fill="#E7E7E7"/>
</svg>
